<?xml version="1.0" encoding="UTF-8"?>
<!DOCTYPE svg PUBLIC "-//W3C//DTD SVG 1.1//EN" "http://www.w3.org/Graphics/SVG/1.1/DTD/svg11.dtd">
<!-- Creator: CorelDRAW 2017 -->
<svg xmlns="http://www.w3.org/2000/svg" xml:space="preserve" width="72px" height="72px" version="1.1" style="shape-rendering:geometricPrecision; text-rendering:geometricPrecision; image-rendering:optimizeQuality; fill-rule:evenodd; clip-rule:evenodd"
viewBox="0 0 72 72"
 xmlns:xlink="http://www.w3.org/1999/xlink">
 <defs>
  <style type="text/css">
   <![CDATA[
    .fil0 {fill:none}
    .fil1 {fill:black}
    .fil2 {fill:#F7F7F7}
   ]]>
  </style>
 </defs>
 <g id="Camada_x0020_1">
  <metadata id="CorelCorpID_0Corel-Layer"/>
  <rect class="fil0" width="72" height="72"/>
  <g id="_1668702008144">
   <path class="fil1" d="M55.25 39.01c2.15,0 3.38,0.23 4.61,1.39 2.89,2.72 2.76,9.15 -4.73,9.23l0.12 -10.62zm-2.02 16.98c5.02,-0.05 9.14,-0.09 12.59,-4.91 2.82,-3.94 2.89,-9.29 0.14,-13.32 -3.26,-4.76 -7.3,-5.11 -12.3,-5.11l-34.84 0c-10.27,0.24 -12.39,-1.26 -12.38,5 0.01,8.73 -0.78,14.74 3.97,22.09 0.62,0.95 1.24,1.7 1.87,2.51 0.71,0.93 1.57,1.27 2.01,2.23 -1.83,0 -3.66,0 -5.5,0 -5.53,-0.02 -4.89,3.94 -3.56,5.37 1.13,1.21 2.41,1 4.29,1l42.68 0c1.92,0 3.27,0.1 4.38,-1.1 0.99,-1.07 1.05,-2.72 0.18,-4.01 -1.3,-1.9 -6.51,-1.28 -9.35,-1.26 0.24,-0.53 4.65,-4.43 5.82,-8.49z"/>
   <path class="fil1" d="M37.59 0.91c-2.94,0.69 -7.73,7.5 -4.71,13.93 1.37,2.92 2.6,3.11 4.54,5.67 1.12,1.48 0.47,2.45 1.18,3.93 0.53,1.11 1.74,2.1 3.56,1.74 3.05,-0.6 2.83,-4.38 1.69,-7.17 -1.25,-3.03 -3.23,-4.14 -4.46,-5.76 -2.78,-3.64 0.03,-5.63 1.14,-6.98 2.13,-2.59 0.09,-6.07 -2.94,-5.36z"/>
   <path class="fil1" d="M22.69 0.94c-3.36,0.93 -7.6,7.88 -4.58,14.07 1.34,2.74 3.37,3.93 4.56,5.67 1.1,1.61 0.41,2.58 1.16,3.94 1.91,3.47 8.17,1.5 5.14,-5.68 -1.99,-4.7 -6.35,-5.43 -5.45,-9.61 0.27,-1.27 1.46,-2.37 2.07,-3.04 2.35,-2.6 0.02,-6.16 -2.9,-5.35z"/>
   <path class="fil2" d="M55.13 49.63c7.49,-0.08 7.62,-6.51 4.73,-9.23 -1.23,-1.16 -2.46,-1.39 -4.61,-1.39l-0.12 10.62z"/>
  </g>
 </g>
</svg>
