<?xml version="1.0" encoding="UTF-8"?>
<!DOCTYPE svg PUBLIC "-//W3C//DTD SVG 1.1//EN" "http://www.w3.org/Graphics/SVG/1.1/DTD/svg11.dtd">
<!-- Creator: CorelDRAW 2017 -->
<svg xmlns="http://www.w3.org/2000/svg" xml:space="preserve" width="72px" height="72px" version="1.1" style="shape-rendering:geometricPrecision; text-rendering:geometricPrecision; image-rendering:optimizeQuality; fill-rule:evenodd; clip-rule:evenodd"
viewBox="0 0 732.74 732.74"
 xmlns:xlink="http://www.w3.org/1999/xlink">
 <defs>
  <style type="text/css">
   <![CDATA[
    .fil0 {fill:none}
    .fil1 {fill:#FEFEFE}
   ]]>
  </style>
 </defs>
 <g id="Camada_x0020_1">
  <metadata id="CorelCorpID_0Corel-Layer"/>
  <rect class="fil0" width="732.74" height="732.74"/>
  <g id="_2577183913216">
   <path class="fil1" d="M586.19 398.39c24.75,0 38.96,2.47 53.05,14.56 33.28,28.59 31.79,95.93 -54.37,96.77l1.32 -111.33zm-23.17 178.01c57.72,-0.57 105.17,-0.96 144.85,-51.46 32.44,-41.28 33.31,-97.39 1.58,-139.61 -37.48,-49.85 -83.99,-53.61 -141.48,-53.61l-400.95 0c-118.29,2.51 -142.61,-13.14 -142.52,52.44 0.13,91.48 -9.01,154.51 45.72,231.54 7.08,9.97 14.23,17.78 21.47,26.33 8.21,9.66 18.06,13.29 23.19,23.3 -21.11,0 -42.22,0.03 -63.33,-0.02 -63.63,-0.15 -56.32,41.34 -41,56.29 13.05,12.73 27.73,10.48 49.41,10.47l491.22 0c22.06,0.01 37.57,1.06 50.33,-11.48 11.39,-11.2 12.08,-28.58 2.05,-42 -14.87,-19.9 -74.88,-13.47 -107.59,-13.21 2.8,-5.62 53.51,-46.48 67.05,-88.98z"/>
   <path class="fil1" d="M209.32 1.69c24.45,7.05 64.17,76.36 39.12,141.77 -11.37,29.69 -21.61,31.7 -37.7,57.71 -9.31,15.03 -3.91,24.95 -9.75,40.01 -4.39,11.3 -14.48,21.4 -29.58,17.73 -25.27,-6.12 -23.5,-44.57 -14,-72.98 10.34,-30.88 26.77,-42.12 37.01,-58.59 23.05,-37.08 -0.28,-57.38 -9.44,-71.05 -17.71,-26.44 -0.77,-61.82 24.34,-54.6z"/>
   <path class="fil1" d="M341.22 2.45c27.88,9.49 63.01,80.24 37.96,143.24 -11.07,27.82 -27.94,40.02 -37.79,57.66 -9.13,16.38 -3.42,26.27 -9.64,40.1 -15.88,35.35 -67.84,15.28 -42.64,-57.82 16.45,-47.77 52.68,-55.24 45.19,-97.76 -2.28,-12.95 -12.09,-24.14 -17.15,-30.99 -19.56,-26.47 -0.21,-62.69 24.07,-54.43z"/>
   <path class="fil1" d="M469.55 3.32c27.88,9.48 63.01,80.22 37.95,143.24 -11.06,27.81 -27.95,40 -37.79,57.65 -9.14,16.38 -3.42,26.27 -9.63,40.11 -15.89,35.34 -67.84,15.28 -42.66,-57.83 16.47,-47.78 52.68,-55.23 45.2,-97.77 -2.28,-12.93 -12.09,-24.12 -17.15,-30.98 -19.55,-26.46 -0.21,-62.69 24.08,-54.42z"/>
  </g>
 </g>
</svg>
