<?xml version="1.0" encoding="UTF-8"?>
<!DOCTYPE svg PUBLIC "-//W3C//DTD SVG 1.1//EN" "http://www.w3.org/Graphics/SVG/1.1/DTD/svg11.dtd">
<!-- Creator: CorelDRAW 2017 -->
<svg xmlns="http://www.w3.org/2000/svg" xml:space="preserve" width="1024px" height="1024px" version="1.1" style="shape-rendering:geometricPrecision; text-rendering:geometricPrecision; image-rendering:optimizeQuality; fill-rule:evenodd; clip-rule:evenodd"
viewBox="0 0 1024 1024"
 xmlns:xlink="http://www.w3.org/1999/xlink">
 <defs>
  <style type="text/css">
   <![CDATA[
    .fil1 {fill:#2B2E73}
    .fil2 {fill:#32CB70}
    .fil0 {fill:url(#id0)}
   ]]>
  </style>
  <radialGradient id="id0" gradientUnits="userSpaceOnUse" gradientTransform="matrix(-1.28579 -0.00523526 -0.0160832 -1.71571 1504 1394)" cx="654.28" cy="512" r="207.5" fx="654.28" fy="512">
   <stop offset="0" style="stop-opacity:1; stop-color:#FEFEFE"/>
   <stop offset="0.729412" style="stop-opacity:1; stop-color:#D8D9EE"/>
   <stop offset="1" style="stop-opacity:1; stop-color:#B3B5DE"/>
  </radialGradient>
 </defs>
 <g id="Camada_x0020_1">
  <metadata id="CorelCorpID_0Corel-Layer"/>
  <g id="_2821983834928">
   <circle class="fil0" cx="512" cy="512" r="508.16"/>
   <path class="fil1" d="M315.01 206.02l397.71 0c60.28,0 109.59,49.32 109.59,109.59l0 116.31c0,3.97 -2.18,6.8 -5.99,6.8l-28.66 0c-3.84,0 -6.11,-2.47 -6.11,-6.91l0 -29.59 -132.97 0c-16.18,0 -23.84,-8.75 -23.84,-23.46l0 -132.31 -219.23 0 0 132.21c0,14.71 -7.66,23.47 -23.84,23.47l-135.49 0 0 219.21 135.12 0c16.17,0 23.83,8.75 23.83,23.46l0 132.61 219.23 0 0 -132.7c0,-14.72 7.66,-23.47 23.84,-23.47l133.35 0 0 -29.27c0,-4.65 2.22,-7.23 6.57,-7.23l27.36 0c4.73,0 6.83,2.8 6.83,7.23l0 116.28c0,60.27 -49.32,109.59 -109.59,109.59l-397.71 0c-60.28,0 -109.59,-49.32 -109.59,-109.59l0 -392.64c0,-60.28 49.31,-109.59 109.59,-109.59zm466.54 438.78l-125.74 0c-4.76,0 -7.89,2.44 -7.89,7.75l0 124.86 52.47 0c44.64,0 81.16,-36.52 81.16,-81.16l0 -51.45zm-535.37 0.1l127.5 0c4.77,0 7.89,2.44 7.89,7.74l0 124.77 -54.23 0c-44.64,0 -81.16,-36.52 -81.16,-81.16l0 -51.35zm535.37 -266.24l-125.36 0c-4.77,0 -7.89,-2.44 -7.89,-7.75l0 -124.46 52.09 0c44.64,0 81.16,36.52 81.16,81.15l0 51.06zm-535.37 -0.09l127.88 0c4.77,0 7.89,-2.45 7.89,-7.75l0 -124.37 -54.61 0c-44.64,0 -81.16,36.52 -81.16,81.15l0 50.97z"/>
   <path class="fil1" d="M345.4 355.35l-51.01 0c-7.54,0 -13.7,-6.17 -13.7,-13.7l0 -22.05c0,-22.6 18.49,-41.09 41.09,-41.09l23.62 0c7.53,0 13.69,6.16 13.69,13.69l0 49.45c0,7.53 -6.16,13.7 -13.69,13.7z"/>
   <path class="fil1" d="M345.19 668.17l-51.01 0c-7.53,0 -13.7,6.17 -13.7,13.7l0 22.05c0,22.6 18.5,41.09 41.1,41.09l23.61 0c7.54,0 13.7,-6.16 13.7,-13.7l0 -49.44c0,-7.53 -6.16,-13.7 -13.7,-13.7z"/>
   <path class="fil1" d="M685.72 355.17l51.01 0c7.53,0 13.7,-6.16 13.7,-13.7l0 -22.04c0,-22.6 -18.49,-41.1 -41.1,-41.1l-23.61 0c-7.53,0 -13.7,6.17 -13.7,13.7l0 49.44c0,7.54 6.17,13.7 13.7,13.7z"/>
   <path class="fil1" d="M685.52 668.34l51.01 0c7.53,0 13.7,6.17 13.7,13.7l0 22.05c0,22.6 -18.5,41.09 -41.1,41.09l-23.61 0c-7.54,0 -13.7,-6.16 -13.7,-13.69l0 -49.45c0,-7.53 6.16,-13.7 13.7,-13.7z"/>
   <path class="fil1" d="M283.16 596.44l-23.11 0 0 -48.03 4.81 0 18.3 0 24.56 0 0 24.11 -24.56 0 0 23.92zm123.89 -24.05l-48.76 0 0 24.19 48.76 0 0 -24.19zm-49.93 -22.79l-23.19 0 0 24.01 23.19 0 0 -24.01zm-24.38 23.96l-23.2 0 0 24.01 23.2 0 0 -24.01zm-24.49 -122.84l26.13 0 0 -0.09 0 -24.11 22.25 0 48.75 0 0 24.11 -48.75 0 0 0.09 0 20.66 0 3.44 0 1.55 0 23.82 -23.19 0 0 -25.37 -25.19 0 -24.38 0 0 -24.1 0 -0.01 -23.38 0 0 -24.1 23.38 0 24.38 0 0 24.1 0 0.01zm96.69 73.72l-23.19 0 0 24.01 23.19 0 0 -24.01zm-23.84 -24.52l-23.19 0 0 24.02 23.19 0 0 -24.02zm24.38 -23.96l-23.19 0 0 24.01 23.19 0 0 -24.01zm-122.86 0.59l-21.73 0 -11.71 0 0 23.29 11.71 0 0 0.27 0 10.42 0 13.68 48.1 0 0 23.66 22.9 0 0 -23.66 0 -24.1 -22.9 0 -26.37 0 0 -0.27 0 -23.29z"/>
   <path class="fil1" d="M600.11 280.02l0 -23.11 -48.03 0 0 4.8 0 18.31 0 24.55 24.11 0 0 -24.55 23.92 0zm-24.05 123.88l0 -48.75 24.19 0 0 48.75 -24.19 0zm-22.79 -49.92l0 -23.2 24.01 0 0 23.2 -24.01 0zm23.96 -24.38l0 -23.2 24.01 0 0 23.2 -24.01 0zm-122.85 -24.5l0 26.14 -0.09 0 -24.1 0 0 22.25 0 48.75 24.1 0 0 -48.75 0.09 0 20.67 0 3.44 0 1.55 0 23.82 0 0 -23.19 -25.37 0 0 -25.2 0 -24.38 -24.11 0 0 0 0 -23.37 -24.1 0 0 23.37 0 24.38 24.1 0 0 0zm73.73 96.7l0 -23.19 24.01 0 0 23.19 -24.01 0zm-24.52 -23.84l0 -23.19 24.01 0 0 23.19 -24.01 0zm-23.96 24.38l0 -23.19 24.01 0 0 23.19 -24.01 0zm0.59 -122.86l0 -21.73 0 -11.71 23.29 0 0 11.71 0.27 0 10.42 0 13.68 0 0 48.09 23.66 0 0 22.91 -23.66 0 -24.1 0 0 -22.91 0 -26.36 -0.27 0 -23.29 0z"/>
   <path class="fil1" d="M600.11 654.8l0 -23.11 -48.02 0 0 4.8 0 18.31 0 24.56 24.1 0 0 -24.56 23.92 0zm-24.05 123.88l0 -48.75 24.19 0 0 48.75 -24.19 0zm-22.79 -49.92l0 -23.2 24.01 0 0 23.2 -24.01 0zm23.96 -24.39l0 -23.19 24.01 0 0 23.19 -24.01 0zm-122.84 -24.49l0 26.14 -0.09 0 -24.11 0 0 22.25 0 48.75 24.11 0 0 -48.75 0.09 0 20.66 0 3.44 0 1.55 0 23.82 0 0 -23.19 -25.37 0 0 -25.2 0 -24.37 -24.1 0 -0.01 0 0 -23.38 -24.1 0 0 23.38 0 24.37 24.1 0 0.01 0zm73.72 96.7l0 -23.19 24.01 0 0 23.19 -24.01 0zm-24.52 -23.84l0 -23.19 24.02 0 0 23.19 -24.02 0zm-23.96 24.38l0 -23.19 24.01 0 0 23.19 -24.01 0zm0.59 -122.86l0 -21.73 0 -11.71 23.29 0 0 11.71 0.27 0 10.42 0 13.69 0 0 48.09 23.65 0 0 22.91 -23.65 0 -24.11 0 0 -22.91 0 -26.36 -0.27 0 -23.29 0z"/>
   <path class="fil2" d="M493.05 580.06l0.97 0.98 2.36 2.37c6.39,6.43 16.64,6.83 23.52,1.21 1.65,-0.93 3.21,-2.1 4.62,-3.49l108.48 -107.88c8.41,-8.36 8.45,-22.08 0.09,-30.49l-0.98 -0.98c-8.36,-8.41 -22.08,-8.45 -30.49,-0.09l-90.32 89.82c-4.16,3.59 -7.89,3.86 -11.15,0.46l-36.93 -37.25c-6.79,-6.84 -17.96,-6.87 -24.79,-0.07l-2.76 2.75c-6.83,6.8 -6.86,17.94 -0.07,24.78l57.45 57.88z"/>
  </g>
 </g>
</svg>
