<?xml version="1.0" encoding="UTF-8"?>
<!DOCTYPE svg PUBLIC "-//W3C//DTD SVG 1.1//EN" "http://www.w3.org/Graphics/SVG/1.1/DTD/svg11.dtd">
<!-- Creator: CorelDRAW 2017 -->
<svg xmlns="http://www.w3.org/2000/svg" xml:space="preserve" width="1024px" height="1024px" version="1.1" style="shape-rendering:geometricPrecision; text-rendering:geometricPrecision; image-rendering:optimizeQuality; fill-rule:evenodd; clip-rule:evenodd"
viewBox="0 0 1024 1024"
 xmlns:xlink="http://www.w3.org/1999/xlink">
 <defs>
  <style type="text/css">
   <![CDATA[
    .fil0 {fill:#2B2E73}
    .fil1 {fill:#32CB70}
   ]]>
  </style>
 </defs>
 <g id="Camada_x0020_1">
  <metadata id="CorelCorpID_0Corel-Layer"/>
  <path class="fil0" d="M232.98 252.67l-84.48 0c-12.48,0 -22.69,-10.21 -22.69,-22.69l0 -36.51c0,-37.44 30.62,-68.07 68.06,-68.07l39.11 0c12.48,0 22.69,10.21 22.69,22.69l0 81.89c0,12.48 -10.21,22.69 -22.69,22.69z"/>
  <path class="fil0" d="M232.64 770.78l-84.48 0c-12.48,0 -22.69,10.2 -22.69,22.68l0 36.51c0,37.44 30.63,68.07 68.07,68.07l39.1 0c12.48,0 22.69,-10.21 22.69,-22.69l0 -81.89c0,-12.48 -10.21,-22.68 -22.69,-22.68z"/>
  <path class="fil0" d="M654.93 751.07l0 -38.67 -79.65 0 0 8.04 0 30.63 0 41.09 39.97 0 0 -41.09 39.68 0zm-0.01 -627.17l0 -38.66 -79.64 0 0 8.03 0 30.63 0 41.1 39.97 0 0 -41.1 39.67 0zm-39.89 207.32l0 -81.59 40.13 0 0 81.59 -40.13 0zm-37.79 -83.55l0 -38.81 39.82 0 0 38.81 -39.82 0zm39.74 -40.8l0 -38.81 39.82 0 0 38.81 -39.82 0zm-203.73 -40.99l0 43.74 -0.14 0 -39.98 0 0 37.23 0 81.58 39.98 0 0 -81.58 0.14 0 34.27 0 5.71 0 2.56 0 39.51 0 0 -38.81 -42.07 0 0 -42.16 0 -40.79 -39.98 0 0 0 0 -39.12 -39.98 0 0 39.12 0 40.79 39.98 0 0 0zm122.27 161.82l0 -38.81 39.82 0 0 38.81 -39.82 0zm-40.66 -39.9l0 -38.81 39.82 0 0 38.81 -39.82 0zm-39.74 40.8l0 -38.81 39.82 0 0 38.81 -39.82 0zm0.98 -205.6l0 -36.36 0 -18.91 -123.9 0 0 221.24c0,24.62 -12.7,39.27 -39.53,39.27l-224.7 0 0 124.54 24.4 0 36.03 0 0 38.97 0 0.46 43.73 0 37.98 0 0 40.34 0 39.58 -37.98 0 0 -39.58 -79.76 0 0 -22.9 0 -17.44 0 -0.46 -24.4 0 0 203.32 224.07 0c26.83,0 39.53,14.65 39.53,39.27l0 221.91 41.86 0 -0.3 -82.23 0 -37.23 39.98 0 0.15 0 0 -43.74 -0.01 0 -39.97 0 0 -40.8 0 -39.12 39.97 0 0 39.12 0.01 0 39.97 0 0 40.8 0 42.15 42.08 0 0 38.82 -39.51 0 -2.57 0 -5.71 0 -34.26 0 -0.15 0 0.3 82.23 41.71 0 0 -0.48 0 -5.81 0 -33 39.82 0 0 26.38 0 12.43 0 0.48 40.58 0 0 -1.39 0 -10.38 0 -28.43 39.82 0 0 28.43 0 10.38 0 1.39 39.7 0 0 -79.45 40.12 0 0 79.45 39.99 0 0 -222.07c0,-24.62 12.69,-39.27 39.53,-39.27l221.13 0 0 -48.98c0,-7.78 3.69,-12.1 10.9,-12.1l45.37 0c7.85,0 11.34,4.69 11.34,12.1l0 194.58c0,100.86 -81.79,183.39 -181.75,183.39l-659.56 0c-99.95,0 -181.74,-82.53 -181.74,-183.39l0 -657.05c0,-100.86 81.79,-183.39 181.74,-183.39l659.56 0c99.96,0 181.75,82.53 181.75,183.39l0 194.65c0,6.63 -3.63,11.38 -9.93,11.38l-47.53 0c-6.37,0 -10.15,-4.15 -10.15,-11.58l0 -49.51 -220.51 0c-26.83,0 -39.53,-14.65 -39.53,-39.27l0 -221.4 -201.05 0 0 18.91 0.45 0 17.28 0 22.69 0 0 80.48 39.23 0 0 38.33 -39.23 0 -39.97 0 0 -38.33 0 -44.12 -0.45 0 -38.62 0zm-326.8 530.41l-38.32 0 0 -80.37 7.96 0 30.36 0 40.72 0 0 40.34 -40.72 0 0 40.03zm205.45 -40.25l-80.85 0 0 40.49 80.85 0 0 -40.49zm-82.8 -38.14l-38.46 0 0 40.19 38.46 0 0 -40.19zm-40.43 40.1l-38.47 0 0 40.18 38.47 0 0 -40.18zm-40.62 -205.57l43.35 0 0 -0.15 0 -40.33 36.89 0 80.85 0 0 40.33 -80.85 0 0 0.15 0 34.58 0 5.76 0 2.59 0 39.87 -38.46 0 0 -42.46 -41.78 0 -40.43 0 0 -40.34 0 0 -38.77 0 0 -40.34 38.77 0 40.43 0 0 40.34 0 0zm160.36 123.38l-38.46 0 0 40.18 38.46 0 0 -40.18zm-39.53 -41.03l-38.47 0 0 40.18 38.47 0 0 -40.18zm40.43 -40.1l-38.46 0 0 40.18 38.46 0 0 -40.18zm464.4 321.93l84.59 0c12.5,0 22.72,10.32 22.72,22.93l0 36.89c0,37.82 -30.66,68.77 -68.15,68.77l-39.16 0c-12.49,0 -22.72,-10.32 -22.72,-22.92l0 -82.74c0,-12.61 10.23,-22.93 22.72,-22.93zm0.34 -524.06l84.59 0c12.49,0 22.72,-10.31 22.72,-22.92l0 -36.89c0,-37.83 -30.67,-68.78 -68.16,-68.78l-39.15 0c-12.5,0 -22.72,10.32 -22.72,22.93l0 82.74c0,12.61 10.22,22.92 22.72,22.92zm158.91 484.67l-208.51 0c-7.91,0 -13.08,4.09 -13.08,12.96l0 208.95 87.01 0c74.02,0 134.58,-61.11 134.58,-135.81l0 -86.1zm-887.84 0.16l211.45 0c7.91,0 13.08,4.09 13.08,12.96l0 208.79 -89.94 0c-74.02,0 -134.59,-61.11 -134.59,-135.81l0 -85.94zm887.84 -445.52l-207.88 0c-7.91,0 -13.09,-4.09 -13.09,-12.97l0 -208.28 86.39 0c74.02,0 134.58,61.11 134.58,135.8l0 85.45zm-887.84 -0.16l212.08 0c7.91,0 13.08,-4.09 13.08,-12.97l0 -208.12 -90.57 0c-74.02,0 -134.59,61.11 -134.59,135.8l0 85.29zm509.27 586.01l0 -38.81 39.82 0 0 38.81 -39.82 0zm39.74 -40.8l0 -38.81 39.82 0 0 38.81 -39.82 0zm-122.12 80.94l0 -38.81 39.82 0 0 38.81 -39.82 0zm-38.76 -164.81l0 -36.36 0 -19.59 38.62 0 0 19.59 0.45 0 17.28 0 22.7 0 0 80.48 39.23 0 0 38.33 -39.23 0 -39.98 0 0 -38.33 0 -44.12 -0.45 0 -38.62 0z"/>
  <path class="fil1" d="M396.47 733.61l3.31 4.16 7.98 10.03c21.65,27.21 60.54,33.08 89.15,14.54 6.71,-2.84 13.14,-6.62 19.09,-11.36l459.2 -365.39c35.59,-28.32 41.55,-80.62 13.23,-116.21l-3.32 -4.17c-28.32,-35.6 -80.62,-41.54 -116.22,-13.21l-382.32 304.22c-17.36,11.95 -31.71,11.41 -42.69,-2.95l-125.06 -157.62c-22.98,-28.96 -65.54,-33.77 -94.45,-10.76l-11.7 9.33c-28.91,23.02 -33.74,65.5 -10.75,94.44l194.55 244.95z"/>
 </g>
</svg>
